<?xml version="1.0" encoding="utf-8"?>
<!-- Generator: Adobe Illustrator 16.0.0, SVG Export Plug-In . SVG Version: 6.00 Build 0)  -->
<!DOCTYPE svg PUBLIC "-//W3C//DTD SVG 1.1//EN" "http://www.w3.org/Graphics/SVG/1.1/DTD/svg11.dtd">
<svg version="1.1" id="Layer_1" xmlns="http://www.w3.org/2000/svg" xmlns:xlink="http://www.w3.org/1999/xlink" x="0px" y="0px"
	 width="202.972px" height="202.96px" viewBox="0 0 202.972 202.96" enable-background="new 0 0 202.972 202.96"
	 xml:space="preserve">
<g>
	<path fill="#208756" d="M101.486,7c52.183,0,94.486,42.303,94.486,94.485c0,52.183-42.303,94.486-94.486,94.486
		C49.304,195.971,7,153.668,7,101.485C7,49.303,49.304,7,101.486,7 M101.486,0C45.526,0,0,45.526,0,101.485
		c0,55.959,45.526,101.486,101.486,101.486c55.959,0,101.486-45.526,101.486-101.486C202.972,45.526,157.446,0,101.486,0L101.486,0z
		"/>
	<g>
		<path fill="#208756" d="M61.702,56.897v4.125l-3.656,0.703V80.78c0,3.297-1.074,5.91-3.223,7.84s-4.863,2.895-8.145,2.895
			c-3.563,0-6.383-0.867-8.461-2.602s-3.078-4.289-3-7.664l0.047-0.141h6.656c0,1.797,0.43,3.105,1.289,3.926s2.016,1.23,3.469,1.23
			c1.266,0,2.34-0.488,3.223-1.465s1.324-2.316,1.324-4.02V61.725l-3.656-0.703v-4.125h10.477H61.702z"/>
		<path fill="#208756" d="M63.811,78.108c0-3.781,1.059-6.879,3.176-9.293s5.043-3.621,8.777-3.621c3.75,0,6.684,1.203,8.801,3.609
			s3.176,5.508,3.176,9.305V78.6c0,3.813-1.059,6.918-3.176,9.316s-5.035,3.598-8.754,3.598c-3.766,0-6.707-1.199-8.824-3.598
			s-3.176-5.504-3.176-9.316V78.108z M70.655,78.6c0,2.313,0.406,4.168,1.219,5.566s2.125,2.098,3.938,2.098
			c1.766,0,3.059-0.703,3.879-2.109s1.23-3.258,1.23-5.555v-0.492c0-2.25-0.414-4.086-1.242-5.508s-2.133-2.133-3.914-2.133
			s-3.078,0.711-3.891,2.133s-1.219,3.258-1.219,5.508V78.6z"/>
		<path fill="#208756" d="M111.414,74.381h-4.594l-0.727-3.164c-0.469-0.375-1.059-0.688-1.77-0.938s-1.496-0.375-2.356-0.375
			c-1.203,0-2.156,0.27-2.859,0.809s-1.055,1.215-1.055,2.027c0,0.766,0.336,1.402,1.008,1.91s2.016,0.957,4.032,1.348
			c3.141,0.625,5.469,1.543,6.984,2.754s2.273,2.879,2.273,5.004c0,2.281-0.98,4.145-2.941,5.59s-4.543,2.168-7.747,2.168
			c-1.953,0-3.746-0.285-5.379-0.855s-3.082-1.387-4.348-2.449l-0.07-5.695h4.781l0.938,3.305c0.406,0.344,0.961,0.598,1.664,0.762
			s1.438,0.246,2.203,0.246c1.392,0,2.45-0.25,3.177-0.75s1.09-1.18,1.09-2.039c0-0.75-0.367-1.398-1.102-1.945
			s-2.086-1.031-4.056-1.453c-2.984-0.609-5.238-1.512-6.762-2.707s-2.285-2.824-2.285-4.887c0-2.125,0.875-3.957,2.625-5.496
			s4.242-2.309,7.477-2.309c1.97,0,3.833,0.266,5.591,0.797s3.137,1.211,4.137,2.039L111.414,74.381z"/>
		<path fill="#208756" d="M127.562,91.514c-3.656,0-6.578-1.172-8.766-3.516s-3.281-5.32-3.281-8.93v-0.938
			c0-3.766,1.035-6.867,3.105-9.305s4.848-3.648,8.332-3.633c3.422,0,6.078,1.031,7.969,3.094s2.836,4.852,2.836,8.367v3.727
			h-15.141l-0.047,0.141c0.125,1.672,0.684,3.047,1.676,4.125s2.34,1.617,4.043,1.617c1.516,0,2.773-0.152,3.773-0.457
			s2.094-0.785,3.281-1.441l1.852,4.219c-1.047,0.828-2.402,1.523-4.066,2.086S129.609,91.514,127.562,91.514z M126.953,70.467
			c-1.266,0-2.266,0.484-3,1.453s-1.188,2.242-1.359,3.82l0.07,0.117h8.391v-0.609c0-1.453-0.34-2.613-1.02-3.48
			S128.328,70.467,126.953,70.467z"/>
		<path fill="#208756" d="M140.476,69.788v-4.125h9.938l0.328,2.953c0.75-1.094,1.648-1.938,2.695-2.531s2.266-0.891,3.656-0.891
			c3.141,0,5.578,1.227,7.313,3.68s2.602,5.68,2.602,9.68v0.492c0,3.75-0.867,6.766-2.602,9.047s-4.156,3.422-7.266,3.422
			c-1.328,0-2.508-0.246-3.539-0.738s-1.914-1.215-2.648-2.168v7.336l3.305,0.703v4.125h-13.43v-4.125l3.305-0.703V70.491
			L140.476,69.788z M160.164,78.553c0-2.391-0.398-4.328-1.195-5.813s-2.016-2.227-3.656-2.227c-1.031,0-1.91,0.211-2.637,0.633
			s-1.301,1.023-1.723,1.805v11.109c0.422,0.719,0.996,1.266,1.723,1.641s1.621,0.563,2.684,0.563c1.656,0,2.871-0.648,3.645-1.945
			s1.16-3.055,1.16-5.273V78.553z"/>
		<path fill="#208756" d="M71.077,114.497c4.016,0,7.148,0.781,9.398,2.344s3.375,3.898,3.375,7.008c0,1.578-0.418,2.988-1.254,4.23
			s-2.051,2.176-3.645,2.801c2.047,0.438,3.582,1.375,4.605,2.813s1.535,3.102,1.535,4.992c0,3.266-1.078,5.738-3.234,7.418
			s-5.211,2.52-9.164,2.52H55.913v-4.102l3.633-0.703v-24.492l-3.633-0.703v-4.125h3.633H71.077z M66.389,128.793h4.922
			c1.828,0,3.234-0.375,4.219-1.125s1.477-1.844,1.477-3.281c0-1.578-0.496-2.742-1.488-3.492s-2.473-1.125-4.441-1.125h-4.688
			V128.793z M66.389,133.528v9.844h6.305c1.813,0,3.195-0.395,4.148-1.184s1.43-1.957,1.43-3.504c0-1.672-0.406-2.949-1.219-3.832
			s-2.094-1.324-3.844-1.324H66.389z"/>
		<path fill="#208756" d="M88.327,144.52l3.281-0.703V128.09l-3.633-0.703v-4.125h10.008l0.305,3.703
			c0.594-1.313,1.359-2.336,2.297-3.07s2.024-1.102,3.259-1.102c0.359,0,0.738,0.027,1.137,0.082s0.73,0.121,0.996,0.199
			l-0.727,6.234l-2.813-0.07c-1.001,0-1.829,0.195-2.485,0.586s-1.156,0.945-1.5,1.664v12.328l3.281,0.703v4.102H88.327V144.52z"/>
		<path fill="#208756" d="M107.804,144.52l3.305-0.703V128.09l-3.656-0.703v-4.125h10.5v20.555l3.281,0.703v4.102h-13.43V144.52z
			 M117.953,117.192h-6.844v-5.133h6.844V117.192z"/>
		<path fill="#208756" d="M139.632,148.622c-0.188-0.422-0.352-0.855-0.492-1.301s-0.25-0.895-0.328-1.348
			c-0.813,0.938-1.801,1.695-2.965,2.273s-2.496,0.867-3.996,0.867c-2.484,0-4.457-0.676-5.918-2.027s-2.191-3.191-2.191-5.52
			c0-2.375,0.953-4.211,2.859-5.508s4.703-1.945,8.391-1.945h3.492v-2.484c0-1.219-0.352-2.164-1.055-2.836
			s-1.742-1.008-3.117-1.008c-0.781,0-1.477,0.09-2.086,0.27s-1.102,0.395-1.477,0.645l-0.445,2.719h-5.156l0.023-5.625
			c1.25-0.844,2.684-1.555,4.301-2.133s3.379-0.867,5.285-0.867c3.141,0,5.691,0.77,7.652,2.309s2.941,3.73,2.941,6.574v10.477
			c0,0.391,0.004,0.758,0.012,1.102s0.035,0.672,0.082,0.984l2.086,0.281v4.102H139.632z M133.703,144.051
			c1.031,0,1.969-0.223,2.813-0.668s1.5-1.004,1.969-1.676v-3.867h-3.492c-1.453,0-2.555,0.34-3.305,1.02s-1.125,1.496-1.125,2.449
			c0,0.859,0.277,1.531,0.832,2.016S132.718,144.051,133.703,144.051z"/>
	</g>
</g>
</svg>
