<svg xmlns="http://www.w3.org/2000/svg" viewBox="0 0 202.972 202.96">
  <defs/>
  <g fill="#208756">
    <path d="M101.486 7c52.183 0 94.486 42.303 94.486 94.485 0 52.183-42.303 94.486-94.486 94.486C49.304 195.971 7 153.668 7 101.485 7 49.303 49.304 7 101.486 7m0-7C45.526 0 0 45.526 0 101.485c0 55.959 45.526 101.486 101.486 101.486 55.959 0 101.486-45.526 101.486-101.486C202.972 45.526 157.446 0 101.486 0z"/>
    <path d="M61.702 56.897v4.125l-3.656.703V80.78c0 3.297-1.074 5.91-3.223 7.84s-4.863 2.895-8.145 2.895c-3.563 0-6.383-.867-8.461-2.602s-3.078-4.289-3-7.664l.047-.141h6.656c0 1.797.43 3.105 1.289 3.926s2.016 1.23 3.469 1.23c1.266 0 2.34-.488 3.223-1.465s1.324-2.316 1.324-4.02V61.725l-3.656-.703v-4.125H61.702zM63.811 78.108c0-3.781 1.059-6.879 3.176-9.293s5.043-3.621 8.777-3.621c3.75 0 6.684 1.203 8.801 3.609s3.176 5.508 3.176 9.305v.492c0 3.813-1.059 6.918-3.176 9.316s-5.035 3.598-8.754 3.598c-3.766 0-6.707-1.199-8.824-3.598s-3.176-5.504-3.176-9.316v-.492zm6.844.492c0 2.313.406 4.168 1.219 5.566s2.125 2.098 3.938 2.098c1.766 0 3.059-.703 3.879-2.109s1.23-3.258 1.23-5.555v-.492c0-2.25-.414-4.086-1.242-5.508s-2.133-2.133-3.914-2.133-3.078.711-3.891 2.133-1.219 3.258-1.219 5.508v.492zM111.414 74.381h-4.594l-.727-3.164c-.469-.375-1.059-.688-1.77-.938s-1.496-.375-2.356-.375c-1.203 0-2.156.27-2.859.809s-1.055 1.215-1.055 2.027c0 .766.336 1.402 1.008 1.91s2.016.957 4.032 1.348c3.141.625 5.469 1.543 6.984 2.754s2.273 2.879 2.273 5.004c0 2.281-.98 4.145-2.941 5.59s-4.543 2.168-7.747 2.168c-1.953 0-3.746-.285-5.379-.855s-3.082-1.387-4.348-2.449l-.07-5.695h4.781l.938 3.305c.406.344.961.598 1.664.762s1.438.246 2.203.246c1.392 0 2.45-.25 3.177-.75s1.09-1.18 1.09-2.039c0-.75-.367-1.398-1.102-1.945s-2.086-1.031-4.056-1.453c-2.984-.609-5.238-1.512-6.762-2.707s-2.285-2.824-2.285-4.887c0-2.125.875-3.957 2.625-5.496s4.242-2.309 7.477-2.309c1.97 0 3.833.266 5.591.797s3.137 1.211 4.137 2.039l.071 6.303zM127.562 91.514c-3.656 0-6.578-1.172-8.766-3.516s-3.281-5.32-3.281-8.93v-.938c0-3.766 1.035-6.867 3.105-9.305s4.848-3.648 8.332-3.633c3.422 0 6.078 1.031 7.969 3.094s2.836 4.852 2.836 8.367v3.727h-15.141l-.047.141c.125 1.672.684 3.047 1.676 4.125s2.34 1.617 4.043 1.617c1.516 0 2.773-.152 3.773-.457s2.094-.785 3.281-1.441l1.852 4.219c-1.047.828-2.402 1.523-4.066 2.086s-3.519.844-5.566.844zm-.609-21.047c-1.266 0-2.266.484-3 1.453s-1.188 2.242-1.359 3.82l.07.117h8.391v-.609c0-1.453-.34-2.613-1.02-3.48s-1.707-1.301-3.082-1.301zM140.476 69.788v-4.125h9.938l.328 2.953c.75-1.094 1.648-1.938 2.695-2.531s2.266-.891 3.656-.891c3.141 0 5.578 1.227 7.313 3.68s2.602 5.68 2.602 9.68v.492c0 3.75-.867 6.766-2.602 9.047s-4.156 3.422-7.266 3.422c-1.328 0-2.508-.246-3.539-.738s-1.914-1.215-2.648-2.168v7.336l3.305.703v4.125h-13.43v-4.125l3.305-.703V70.491l-3.657-.703zm19.688 8.765c0-2.391-.398-4.328-1.195-5.813s-2.016-2.227-3.656-2.227c-1.031 0-1.91.211-2.637.633s-1.301 1.023-1.723 1.805V84.06c.422.719.996 1.266 1.723 1.641s1.621.563 2.684.563c1.656 0 2.871-.648 3.645-1.945s1.16-3.055 1.16-5.273v-.493zM71.077 114.497c4.016 0 7.148.781 9.398 2.344s3.375 3.898 3.375 7.008c0 1.578-.418 2.988-1.254 4.23s-2.051 2.176-3.645 2.801c2.047.438 3.582 1.375 4.605 2.813s1.535 3.102 1.535 4.992c0 3.266-1.078 5.738-3.234 7.418s-5.211 2.52-9.164 2.52h-16.78v-4.102l3.633-.703v-24.492l-3.633-.703v-4.125H71.077zm-4.688 14.296h4.922c1.828 0 3.234-.375 4.219-1.125s1.477-1.844 1.477-3.281c0-1.578-.496-2.742-1.488-3.492s-2.473-1.125-4.441-1.125H66.39v9.023zm0 4.735v9.844h6.305c1.813 0 3.195-.395 4.148-1.184s1.43-1.957 1.43-3.504c0-1.672-.406-2.949-1.219-3.832s-2.094-1.324-3.844-1.324h-6.82zM88.327 144.52l3.281-.703V128.09l-3.633-.703v-4.125h10.008l.305 3.703c.594-1.313 1.359-2.336 2.297-3.07s2.024-1.102 3.259-1.102c.359 0 .738.027 1.137.082s.73.121.996.199l-.727 6.234-2.813-.07c-1.001 0-1.829.195-2.485.586s-1.156.945-1.5 1.664v12.328l3.281.703v4.102H88.327v-4.101zM107.804 144.52l3.305-.703V128.09l-3.656-.703v-4.125h10.5v20.555l3.281.703v4.102h-13.43v-4.102zm10.149-27.328h-6.844v-5.133h6.844v5.133zM139.632 148.622c-.188-.422-.352-.855-.492-1.301s-.25-.895-.328-1.348c-.813.938-1.801 1.695-2.965 2.273s-2.496.867-3.996.867c-2.484 0-4.457-.676-5.918-2.027s-2.191-3.191-2.191-5.52c0-2.375.953-4.211 2.859-5.508s4.703-1.945 8.391-1.945h3.492v-2.484c0-1.219-.352-2.164-1.055-2.836s-1.742-1.008-3.117-1.008c-.781 0-1.477.09-2.086.27s-1.102.395-1.477.645l-.445 2.719h-5.156l.023-5.625c1.25-.844 2.684-1.555 4.301-2.133s3.379-.867 5.285-.867c3.141 0 5.691.77 7.652 2.309s2.941 3.73 2.941 6.574v10.477c0 .391.004.758.012 1.102s.035.672.082.984l2.086.281v4.102h-7.898zm-5.929-4.571c1.031 0 1.969-.223 2.813-.668s1.5-1.004 1.969-1.676v-3.867h-3.492c-1.453 0-2.555.34-3.305 1.02s-1.125 1.496-1.125 2.449c0 .859.277 1.531.832 2.016s1.323.726 2.308.726z"/>
  </g>
</svg>
